<svg width="215" height="46" viewBox="0 0 215 46" fill="none" xmlns="http://www.w3.org/2000/svg">
<g clip-path="url(#clip0_28_43)">
<path d="M21.9428 44.7872C10.1599 44.7872 0.577148 35.2002 0.577148 23.4216C0.577148 11.643 10.1642 2.0603 21.9428 2.0603C32.7889 2.0603 41.9934 10.3539 43.1752 21.0625H37.0345C36.188 21.0625 35.3328 20.9851 34.4863 20.839L34.4218 20.8261C28.337 19.7089 23.4941 14.8659 22.3725 8.76821L22.0287 6.90753H20.9759L20.6321 8.76821C19.4504 15.2011 14.3797 20.6499 8.56991 21.7242L7.1991 21.9778L6.49007 22.0895L6.47289 23.2583L8.56562 23.6451C13.3656 24.5303 19.1883 30.1166 20.6278 37.9375L20.9716 39.7939H22.0244L22.3682 37.9375C23.4898 31.8398 28.337 26.9926 34.4261 25.8753C35.2984 25.712 36.1922 25.6304 37.0904 25.6304H43.1838C42.0708 36.4249 32.8576 44.7872 21.9342 44.7872H21.9428Z" fill="black"/>
<path d="M21.9432 45.0021C10.0443 45.0021 0.358398 35.3206 0.358398 23.4216C0.358398 11.5227 10.04 1.84546 21.9432 1.84546C27.233 1.84546 32.3424 3.81356 36.3259 7.38453C40.3008 10.9512 42.8103 15.7984 43.3904 21.0367L43.4162 21.273H37.0392C36.1798 21.273 35.3074 21.1957 34.4523 21.0453L34.3878 21.0367C28.2085 19.9022 23.2968 14.9906 22.1623 8.8069L21.8529 7.12241H21.1568L20.8474 8.8069C19.6528 15.3257 14.5047 20.8476 8.61329 21.9348L6.70534 22.2743L6.69675 23.0822L8.61329 23.4345C13.482 24.3326 19.3907 29.9877 20.8474 37.8989L21.1568 39.5791H21.8486L22.158 37.8989C23.2968 31.7152 28.2128 26.7949 34.3878 25.6648C35.273 25.5015 36.1798 25.4198 37.0908 25.4198H43.4205L43.3947 25.6562C42.2775 36.5066 32.8494 45.0064 21.9303 45.0064L21.9432 45.0021ZM21.9432 2.27088C10.2806 2.27088 0.788117 11.7591 0.788117 23.4173C0.788117 35.0756 10.2763 44.5681 21.9432 44.5681C32.5615 44.5681 41.7446 36.3605 42.9521 25.841H37.0993C36.2184 25.841 35.3332 25.9226 34.4738 26.0816C28.4706 27.1817 23.6964 31.9602 22.5878 37.9719L22.2139 40.0045H20.8044L20.4306 37.9719C19.0082 30.2413 13.2672 24.7237 8.54025 23.8514L6.26703 23.4302L6.28851 21.9004L7.17803 21.7586L8.54454 21.5051C14.2684 20.448 19.2703 15.0722 20.4349 8.72096L20.8087 6.68408H22.2182L22.5921 8.72096C23.6921 14.7284 28.4663 19.5026 34.4652 20.607L34.5296 20.6156C35.3633 20.7617 36.2056 20.8347 37.0435 20.8347H42.9392C41.6587 10.4012 32.4885 2.26229 21.9475 2.26229L21.9432 2.27088Z" fill="black"/>
<path d="M67.0807 40.0214C64.0899 40.0214 61.5287 39.3553 59.393 38.0189C57.2573 36.6825 55.6201 34.8691 54.4814 32.5744C53.3426 30.2797 52.7754 27.6885 52.7754 24.8094C52.7754 21.9302 53.3684 19.2832 54.5501 16.9885C55.7319 14.6938 57.3991 12.889 59.552 11.5697C61.7049 10.2548 64.2489 9.59302 67.1839 9.59302C70.5829 9.59302 73.432 10.4525 75.7353 12.167C78.0386 13.8859 79.5125 16.2279 80.1528 19.1972L72.8948 21.1181C72.4694 19.6226 71.726 18.4581 70.6646 17.6202C69.6075 16.7865 68.4086 16.3654 67.0764 16.3654C65.5466 16.3654 64.2918 16.7349 63.3121 17.4741C62.3323 18.2132 61.6147 19.2187 61.1506 20.4907C60.6865 21.7627 60.4588 23.1979 60.4588 24.8008C60.4588 27.3103 61.0131 29.3429 62.1261 30.8985C63.239 32.4541 64.8892 33.2318 67.0764 33.2318C68.7137 33.2318 69.9598 32.858 70.8107 32.1103C71.6658 31.3626 72.3061 30.2969 72.7315 28.9089L80.1485 30.4559C79.332 33.5155 77.7807 35.8746 75.5032 37.529C73.2257 39.1835 70.4153 40.0085 67.0721 40.0085L67.0807 40.0214Z" fill="black"/>
<path d="M67.0807 40.2362C64.0641 40.2362 61.4428 39.553 59.2814 38.2037C57.1199 36.8543 55.4439 34.9937 54.2923 32.6732C53.145 30.3613 52.5605 27.7142 52.5605 24.8136C52.5605 21.913 53.1665 19.2101 54.3611 16.8939C55.5557 14.5734 57.266 12.7256 59.4446 11.3935C61.6233 10.0614 64.2274 9.38672 67.1882 9.38672C70.6173 9.38672 73.5394 10.2676 75.8685 12.0037C78.2062 13.7441 79.7188 16.1548 80.3676 19.1628L80.4106 19.3648L72.7487 21.3931L72.6929 21.1911C72.2803 19.7472 71.5541 18.6085 70.54 17.8049C69.5258 17.0013 68.3613 16.5974 67.085 16.5974C65.6111 16.5974 64.3864 16.9541 63.4496 17.6631C62.5085 18.3721 61.8081 19.3519 61.3612 20.5809C60.91 21.8228 60.6822 23.2495 60.6822 24.8179C60.6822 27.2716 61.228 29.2784 62.3109 30.791C63.3766 32.2821 64.9794 33.0384 67.085 33.0384C68.6621 33.0384 69.8696 32.6775 70.6775 31.9727C71.4982 31.2551 72.1213 30.2109 72.5339 28.8702L72.5897 28.6854L80.4235 30.3183L80.3634 30.5375C79.534 33.6315 77.9483 36.0508 75.6407 37.7267C73.3374 39.4026 70.4583 40.2491 67.0807 40.2491V40.2362ZM67.1882 9.81644C64.3091 9.81644 61.778 10.4696 59.6681 11.7588C57.5582 13.0479 55.9037 14.8441 54.7435 17.0916C53.5833 19.3433 52.9946 21.9431 52.9946 24.8136C52.9946 27.6841 53.5618 30.2281 54.6791 32.4841C55.792 34.7315 57.4207 36.5321 59.5091 37.8427C61.5975 39.1491 64.1458 39.8108 67.0807 39.8108C70.3638 39.8108 73.157 38.9901 75.3872 37.37C77.5573 35.7929 79.0742 33.5283 79.8907 30.6363L72.8862 29.1753C72.4479 30.5074 71.8034 31.5516 70.9611 32.2907C70.0716 33.0685 68.7652 33.4639 67.085 33.4639C64.8333 33.4639 63.1101 32.6474 61.9585 31.0403C60.824 29.4546 60.2525 27.3619 60.2525 24.8179C60.2525 23.1979 60.4889 21.7239 60.9572 20.4348C61.4299 19.1284 62.1819 18.0799 63.1918 17.3193C64.2016 16.5544 65.5123 16.1677 67.085 16.1677C68.4644 16.1677 69.7149 16.606 70.8064 17.4697C71.8463 18.2948 72.6026 19.4378 73.0495 20.8731L79.9079 19.0597C79.259 16.2493 77.8151 13.9933 75.6193 12.3561C73.3632 10.6759 70.5271 9.82503 67.1968 9.82503L67.1882 9.81644Z" fill="black"/>
<path d="M112.028 23.0519V39.2222H104.663V25.613C104.663 24.9556 104.624 24.1133 104.555 23.0906C104.482 22.0679 104.263 21.0408 103.889 20.0095C103.515 18.9782 102.905 18.1145 102.059 17.4183C101.216 16.7265 100.017 16.3784 98.4705 16.3784C97.8474 16.3784 97.1814 16.4772 96.468 16.6706C95.759 16.8683 95.0886 17.2464 94.4655 17.805C93.8424 18.368 93.3311 19.1887 92.9315 20.2759C92.5318 21.3588 92.3341 22.8027 92.3341 24.5989V39.2222H84.9688V0.79248H91.4231V13.3746C92.0892 12.6269 92.8584 11.9652 93.735 11.3893C95.5914 10.1604 97.9377 9.54585 100.765 9.54585C103.026 9.54585 104.865 9.92831 106.291 10.6932C107.714 11.4581 108.818 12.4293 109.613 13.6024C110.404 14.7798 110.967 16.0002 111.306 17.2722C111.646 18.5442 111.848 19.7044 111.921 20.7572C111.989 21.8057 112.028 22.5706 112.028 23.0519Z" fill="black"/>
<path d="M112.243 39.4371H104.448V25.6131C104.448 24.9943 104.414 24.1735 104.34 23.1035C104.267 22.098 104.048 21.0795 103.687 20.0826C103.331 19.0942 102.733 18.252 101.921 17.5859C101.122 16.9284 99.9616 16.5933 98.4705 16.5933C97.8775 16.5933 97.2201 16.6878 96.5239 16.8769C95.8493 17.0659 95.2047 17.4312 94.6074 17.9641C94.0143 18.5012 93.5159 19.3048 93.1334 20.349C92.7467 21.3975 92.549 22.8285 92.549 24.5989V39.4371H84.7539V0.577637H91.638V12.8289C92.2267 12.2273 92.8928 11.6859 93.619 11.2089C95.5012 9.96269 97.9076 9.33101 100.765 9.33101C103.047 9.33101 104.942 9.72635 106.395 10.5041C107.834 11.2776 108.977 12.2789 109.794 13.4821C110.593 14.6724 111.173 15.9315 111.517 17.2164C111.856 18.4797 112.063 19.6658 112.14 20.7401C112.213 21.8788 112.247 22.5878 112.247 23.0476V39.4328L112.243 39.4371ZM104.878 39.0074H111.813V23.0519C111.813 22.6093 111.779 21.8831 111.706 20.7701C111.633 19.7259 111.431 18.5657 111.1 17.3281C110.769 16.0862 110.21 14.8744 109.437 13.7227C108.663 12.5797 107.572 11.6257 106.193 10.8823C104.805 10.1389 102.978 9.76073 100.77 9.76073C97.9936 9.76073 95.6688 10.3709 93.8596 11.5699C93.0045 12.1285 92.2439 12.7859 91.5907 13.5208L91.2169 13.9419V1.01166H85.1922V39.0117H92.1279V24.6032C92.1279 22.7855 92.3342 21.303 92.7381 20.2072C93.1463 19.0985 93.6835 18.2348 94.3281 17.6504C94.9726 17.0745 95.6731 16.6749 96.4165 16.4686C97.1513 16.271 97.8431 16.1678 98.4748 16.1678C100.069 16.1678 101.32 16.5331 102.2 17.255C103.073 17.9727 103.713 18.8751 104.096 19.9408C104.469 20.9764 104.697 22.0335 104.775 23.0777C104.848 24.1563 104.882 24.9857 104.882 25.6174V39.0117L104.878 39.0074Z" fill="black"/>
<path d="M142.509 18.0326C142.401 16.9669 142.062 15.8969 141.494 14.8312C140.48 12.9104 138.985 11.5568 137.012 10.7747C135.036 9.99261 132.775 9.60156 130.231 9.60156C126.764 9.60156 124.022 10.3493 122.015 11.8404C120.004 13.3358 118.633 15.2739 117.903 17.6588L124.469 19.7429C124.929 18.4237 125.741 17.5084 126.897 16.9927C128.053 16.4771 129.166 16.2192 130.231 16.2192C132.152 16.2192 133.523 16.6189 134.344 17.4181C134.984 18.0498 135.375 18.9522 135.508 20.1426C134.279 20.3273 133.119 20.4992 132.019 20.6625C130.154 20.9375 128.478 21.2255 127.004 21.5306C125.526 21.8314 124.254 22.1794 123.188 22.5705C121.641 23.1377 120.408 23.8467 119.493 24.6933C118.573 25.5355 117.911 26.511 117.503 27.6154C117.095 28.7155 116.889 29.9359 116.889 31.268C116.889 32.8708 117.258 34.3362 117.997 35.6597C118.736 36.9833 119.819 38.0447 121.255 38.8354C122.686 39.626 124.435 40.0214 126.497 40.0214C128.985 40.0214 131.048 39.5917 132.677 38.7279C133.957 38.049 135.169 37.0348 136.316 35.6855V39.2221H142.668V21.6079C142.668 20.293 142.616 19.1026 142.509 18.0326ZM135.371 27.7357C135.306 28.7756 135.092 29.6866 134.718 30.4687C134.52 30.8769 134.15 31.384 133.609 31.9899C133.068 32.5958 132.337 33.133 131.422 33.6057C130.502 34.074 129.381 34.3104 128.044 34.3104C127.206 34.3104 126.489 34.1858 125.883 33.9365C125.277 33.6873 124.813 33.3306 124.482 32.8579C124.151 32.3853 123.988 31.8223 123.988 31.1649C123.988 30.6836 124.091 30.2453 124.297 29.8542C124.499 29.4632 124.821 29.1022 125.255 28.7756C125.694 28.4447 126.265 28.1396 126.978 27.8517C127.602 27.624 128.319 27.4091 129.14 27.2114C129.956 27.0181 131.035 26.7989 132.367 26.5583C133.227 26.4036 134.254 26.2274 135.448 26.0254C135.431 26.5282 135.41 27.0997 135.371 27.7357Z" fill="black"/>
<path d="M126.497 40.2363C124.404 40.2363 122.608 39.8281 121.151 39.0245C119.694 38.2209 118.569 37.1251 117.812 35.7672C117.06 34.4179 116.678 32.9053 116.678 31.2723C116.678 29.923 116.888 28.6683 117.305 27.5467C117.726 26.4122 118.414 25.3981 119.351 24.5387C120.283 23.6749 121.551 22.9487 123.119 22.3729C124.202 21.9775 125.496 21.6252 126.965 21.3244C128.4 21.0279 130.094 20.7356 131.993 20.4563L132.118 20.4391C133.119 20.293 134.167 20.134 135.276 19.9707C135.13 18.9437 134.769 18.1401 134.202 17.5815C133.428 16.8295 132.092 16.4428 130.24 16.4428C129.208 16.4428 128.117 16.6963 126.991 17.1991C125.891 17.6889 125.113 18.5699 124.679 19.8246L124.61 20.0223L117.64 17.8093L117.705 17.6073C118.444 15.1923 119.853 13.1984 121.895 11.6815C123.931 10.1689 126.737 9.39966 130.24 9.39966C132.796 9.39966 135.108 9.7993 137.098 10.5857C139.109 11.385 140.656 12.7815 141.692 14.7411C142.272 15.8282 142.62 16.9326 142.732 18.0198C142.839 19.0769 142.891 20.2887 142.891 21.6166V39.4456H136.11V36.2657C135.057 37.4216 133.94 38.3154 132.784 38.9299C131.133 39.8066 129.019 40.2492 126.505 40.2492L126.497 40.2363ZM130.231 16.0044C132.199 16.0044 133.634 16.4299 134.494 17.2635C135.173 17.9339 135.585 18.8921 135.723 20.1168L135.744 20.3231L135.538 20.3532C134.356 20.5294 133.235 20.697 132.173 20.856L132.049 20.8732C130.158 21.1525 128.474 21.4447 127.047 21.7369C125.594 22.0334 124.322 22.3815 123.261 22.7682C121.748 23.3226 120.528 24.023 119.639 24.8481C118.749 25.6602 118.1 26.6142 117.705 27.6885C117.305 28.7628 117.103 29.966 117.103 31.268C117.103 32.8279 117.468 34.2718 118.186 35.5567C118.904 36.8458 119.974 37.8857 121.357 38.6506C122.75 39.4198 124.477 39.8109 126.497 39.8109C128.942 39.8109 130.987 39.3854 132.577 38.5432C133.824 37.8814 135.027 36.8759 136.153 35.5524L136.531 35.1054V39.0116H142.452V21.6123C142.452 20.2973 142.401 19.1027 142.293 18.0585C142.19 17.0272 141.855 15.9744 141.305 14.9387C140.321 13.0738 138.847 11.7416 136.935 10.981C134.992 10.2118 132.736 9.82508 130.231 9.82508C126.828 9.82508 124.103 10.5642 122.144 12.0209C120.236 13.439 118.899 15.2911 118.173 17.5256L124.34 19.4809C124.83 18.2175 125.659 17.3151 126.811 16.7994C127.988 16.2752 129.14 16.0087 130.231 16.0087V16.0044ZM128.044 34.5253C127.184 34.5253 126.428 34.3921 125.801 34.1343C125.16 33.8722 124.658 33.4811 124.305 32.9783C123.953 32.4713 123.772 31.8611 123.772 31.1606C123.772 30.645 123.884 30.1723 124.108 29.7512C124.322 29.3343 124.666 28.9476 125.126 28.5995C125.582 28.2557 126.157 27.9463 126.896 27.6498C127.545 27.4135 128.28 27.1943 129.088 27.0009C129.922 26.8033 131.009 26.5841 132.328 26.3435C133.188 26.1888 134.215 26.0126 135.413 25.8106L135.671 25.7676L135.663 26.0298C135.646 26.5326 135.624 27.1084 135.585 27.7444C135.521 28.8144 135.293 29.7597 134.911 30.5547C134.704 30.9801 134.322 31.5087 133.768 32.1275C133.213 32.7463 132.457 33.3049 131.52 33.7905C130.571 34.2718 129.402 34.521 128.044 34.521V34.5253ZM135.22 26.279C134.137 26.4638 133.196 26.6228 132.401 26.7689C131.091 27.0052 130.012 27.2244 129.187 27.4178C128.396 27.6068 127.679 27.8217 127.051 28.0495C126.355 28.3288 125.805 28.6253 125.384 28.9433C124.976 29.2527 124.671 29.5878 124.486 29.9488C124.297 30.3098 124.202 30.7137 124.202 31.1606C124.202 31.7794 124.353 32.2951 124.658 32.7291C124.967 33.1674 125.392 33.4983 125.964 33.7304C126.54 33.9667 127.24 34.087 128.044 34.087C129.333 34.087 130.437 33.8593 131.323 33.4081C132.216 32.9483 132.93 32.4197 133.445 31.8396C133.97 31.2509 134.331 30.7567 134.52 30.3656C134.876 29.6222 135.087 28.7284 135.151 27.7143C135.181 27.19 135.203 26.7087 135.22 26.2747V26.279Z" fill="black"/>
<path d="M166.052 10.4011V17.1778C165.249 16.9285 164.32 16.8469 163.263 16.9242C162.202 17.0059 161.248 17.2508 160.393 17.6591C159.538 18.0501 158.82 18.5701 158.231 19.2189C157.643 19.8721 157.2 20.637 156.899 21.5179C156.594 22.3989 156.444 23.3872 156.444 24.4916V39.2223H149.13V10.4011H155.537V15.0378C155.773 14.6123 156.04 14.2041 156.336 13.8174C156.959 12.9966 157.724 12.3219 158.631 11.7891C159.327 11.3594 160.083 11.0285 160.9 10.7879C161.721 10.5472 162.563 10.3968 163.435 10.3324C164.308 10.2722 165.18 10.2937 166.052 10.4011Z" fill="black"/>
<path d="M156.659 39.4372H148.915V10.1863H155.752V14.2686C155.885 14.0666 156.023 13.8732 156.164 13.6885C156.8 12.8505 157.591 12.1501 158.519 11.6043C159.215 11.1746 159.997 10.8308 160.835 10.5816C161.66 10.341 162.529 10.182 163.414 10.1175C164.303 10.0573 165.197 10.0788 166.074 10.1863L166.263 10.2077V17.4657L165.983 17.3798C165.219 17.1434 164.308 17.0618 163.272 17.1348C162.245 17.2122 161.308 17.4528 160.479 17.8481C159.658 18.2263 158.953 18.7334 158.382 19.3565C157.819 19.9839 157.385 20.7316 157.093 21.5824C156.796 22.4332 156.65 23.4087 156.65 24.4873V39.4329L156.659 39.4372ZM149.345 39.0075H156.229V24.4916C156.229 23.3657 156.388 22.343 156.697 21.4492C157.007 20.5468 157.471 19.7475 158.072 19.0771C158.683 18.4068 159.43 17.8653 160.303 17.4657C161.175 17.0489 162.168 16.7953 163.246 16.7137C164.213 16.6406 165.081 16.7051 165.837 16.8985V10.5988C165.051 10.5128 164.247 10.4957 163.448 10.5515C162.593 10.616 161.755 10.7664 160.96 10.9984C160.156 11.2348 159.413 11.5657 158.743 11.9782C157.857 12.4981 157.105 13.1599 156.508 13.9549C156.22 14.3287 155.958 14.7284 155.726 15.1495L155.322 15.8757V10.6246H149.345V39.0161V39.0075Z" fill="black"/>
<path d="M214.38 20.276V39.2223H207.118V22.1969C207.118 20.2932 206.671 18.8107 205.773 17.7536C204.875 16.6965 203.633 16.1636 202.047 16.1636C201.033 16.1636 200.157 16.4 199.409 16.8726C198.661 17.3453 198.077 18.0028 197.66 18.8493C197.243 19.6916 197.033 20.6671 197.033 21.7714V39.2223H189.775V22.1969C189.775 20.2932 189.323 18.8107 188.425 17.7536C187.527 16.6965 186.285 16.1636 184.704 16.1636C183.123 16.1636 181.975 16.6836 181.06 17.7278C180.145 18.7677 179.685 20.117 179.685 21.7714V39.2223H172.375V10.4011H178.778V13.5638C179.616 12.5325 180.643 11.6816 181.859 11.0156C183.453 10.1432 185.237 9.70923 187.213 9.70923C189.469 9.70923 191.326 10.1862 192.774 11.1488C193.977 11.9438 194.918 12.9622 195.602 14.1955C196.5 12.8333 197.69 11.759 199.155 10.9726C200.728 10.1304 202.477 9.70923 204.398 9.70923C207.69 9.70923 210.173 10.6804 211.858 12.6313C213.538 14.5779 214.38 17.1262 214.38 20.276Z" fill="black"/>
<path d="M214.595 39.4372H206.903V22.1969C206.903 20.3534 206.469 18.9052 205.609 17.8911C204.754 16.8856 203.56 16.3785 202.047 16.3785C201.08 16.3785 200.234 16.6062 199.525 17.0531C198.811 17.5043 198.248 18.1403 197.853 18.9439C197.449 19.7561 197.247 20.7058 197.247 21.7715V39.4372H189.559V22.1969C189.559 20.3534 189.121 18.9052 188.262 17.8911C187.407 16.8856 186.212 16.3785 184.704 16.3785C183.195 16.3785 182.087 16.8812 181.223 17.8696C180.346 18.8665 179.899 20.1772 179.899 21.7715V39.4372H172.16V10.1862H178.993V12.9837C179.775 12.1286 180.699 11.4023 181.756 10.8265C183.372 9.9413 185.206 9.49438 187.213 9.49438C189.508 9.49438 191.42 9.99286 192.894 10.9683C194.02 11.7117 194.935 12.6614 195.618 13.7916C196.504 12.5411 197.66 11.5313 199.056 10.7835C200.655 9.9284 202.451 9.49438 204.402 9.49438C207.745 9.49438 210.306 10.5042 212.025 12.4895C213.735 14.4705 214.599 17.0875 214.599 20.276V39.4372H214.595ZM207.333 39.0075H214.165V20.276C214.165 17.1949 213.336 14.6725 211.694 12.7731C210.061 10.8824 207.608 9.9241 204.398 9.9241C202.52 9.9241 200.788 10.3409 199.258 11.1617C197.823 11.9309 196.654 12.9923 195.782 14.3115L195.588 14.608L195.417 14.2986C194.75 13.0954 193.822 12.0942 192.658 11.325C191.257 10.3925 189.426 9.9198 187.217 9.9198C185.284 9.9198 183.518 10.3495 181.966 11.2004C180.78 11.8492 179.766 12.6872 178.95 13.697L178.567 14.1654V10.6117H172.594V39.0032H179.474V21.7672C179.474 20.0655 179.955 18.6603 180.901 17.5817C181.85 16.4945 183.131 15.9445 184.708 15.9445C186.285 15.9445 187.656 16.5031 188.593 17.6118C189.521 18.7033 189.993 20.2459 189.993 22.1926V39.0032H196.822V21.7672C196.822 20.637 197.041 19.6186 197.471 18.7505C197.9 17.8739 198.515 17.1821 199.297 16.6879C200.075 16.1937 201.003 15.9445 202.051 15.9445C203.693 15.9445 205.004 16.5031 205.94 17.6118C206.869 18.7033 207.337 20.2416 207.337 22.1926V39.0032L207.333 39.0075Z" fill="black"/>
</g>
<defs>
<clipPath id="clip0_28_43">
<rect width="214" height="44.6908" fill="white" transform="translate(0.503906 0.444336)"/>
</clipPath>
</defs>
</svg>
