<svg width="306" height="67" viewBox="0 0 306 67" fill="none" xmlns="http://www.w3.org/2000/svg">
<path fill-rule="evenodd" clip-rule="evenodd" d="M153.15 33.9044C152.903 6.41506 153.026 1.48424 153.766 1.05279C154.259 0.806252 157.834 0.621346 168.805 0.867887L169.113 15.6603C169.36 27.8025 169.606 30.4528 170.284 30.4528C170.777 30.4528 172.811 26.8779 175.215 21.8239L175.966 20.2607C177.927 16.1785 179.557 12.7839 179.776 12.4553C180.084 11.9006 182.18 11.654 186.679 11.654C190.377 11.654 193.274 11.9006 193.459 12.2704C193.644 12.5786 191.117 18.0641 187.912 24.4125C184.707 30.8226 182.303 36.1849 182.55 36.493C182.796 36.7396 183.659 36.9861 184.522 36.9245C185.385 36.9245 187.172 37.4792 188.528 38.0339C190.069 38.7735 191.302 39.8213 191.795 40.9924C192.35 42.2868 192.535 46.0465 192.226 66.2012H176.201L175.893 55.5383C175.647 46.971 175.4 44.7522 174.66 44.3207C174.167 44.0125 173.181 43.7044 172.503 43.7044C171.825 43.6427 170.839 44.1358 170.346 44.6905C169.606 45.4918 169.36 48.0805 168.805 66.2012H153.396L153.15 33.9044ZM22.2981 7.27795C22.3598 4.75091 22.5447 2.34713 22.7296 1.97732C22.9145 1.36097 25.2566 1.17606 39.6793 1.17606L39.3711 66.2012L30.7422 66.3861C24.7019 66.5094 20.6956 66.2628 17.4906 65.5849C14.9635 65.0918 11.6352 63.9207 10.156 62.9345C8.61512 62.01 6.45788 60.0377 5.28682 58.4968C4.17738 56.9559 2.6365 53.7509 1.89688 51.4088C0.910715 48.1421 0.602539 45.4301 0.602539 40.0062C0.602539 34.9522 0.910715 31.8704 1.71197 29.2201C2.32833 27.1861 3.37612 24.4742 3.99248 23.2415C4.60883 21.9471 6.08807 19.9132 7.13587 18.6805C8.24531 17.4478 10.2793 15.7836 11.6352 14.9824C12.9912 14.1811 15.8881 13.1333 22.1132 11.839L22.2981 7.27795ZM88.0629 1.54587C87.8164 1.79242 87.5698 3.27166 87.6315 4.81254C87.6931 6.35342 88.0629 8.01757 88.4944 8.44902C89.0491 8.9421 91.3912 9.18864 96.0755 9.18864C99.8352 9.18864 103.225 8.9421 103.657 8.69556C104.191 8.40793 104.396 7.13413 104.273 4.87418L104.088 1.48424C92.0692 1.2377 88.3711 1.36097 88.0629 1.54587ZM52.8076 16.7081C54.4101 15.044 56.6906 13.6264 58.7862 12.8251C61.2516 11.9622 63.1007 11.7157 65.3812 11.9622C67.1686 12.1471 69.6956 12.7635 70.9283 13.4415C72.2227 14.0578 74.3799 15.7836 75.6742 17.2629C77.0302 18.7421 78.8793 21.639 79.8654 23.6729C80.79 25.7069 81.961 29.0352 82.5157 31.0691C83.0088 33.1031 83.8101 37.9723 84.1799 41.8553C84.7346 47.3408 84.7346 49.8679 84.1799 52.9496C83.7485 55.1685 82.7007 58.1886 81.7761 59.7295C80.4202 61.9484 79.1258 62.9345 75.7359 64.6603C71.5447 66.7559 71.2981 66.8176 64.0252 66.8176C56.9371 66.8176 56.444 66.7559 52.4378 64.8452C49.5409 63.4276 47.8768 62.1333 46.7673 60.5308C45.9044 59.2364 44.795 56.8327 44.3019 55.1069C43.8088 53.4427 43.3774 50.361 43.3774 48.327C43.3774 46.293 43.6239 42.41 43.9937 39.6981C44.3019 36.9861 45.0415 33.1031 45.5346 31.0691C46.0893 29.0352 47.322 25.5836 48.3082 23.3647C49.356 21.1459 51.3283 18.1874 52.8076 16.7081ZM88.3711 12.4553C87.6931 13.1949 87.5698 18.4956 87.8164 39.7597L88.0629 66.2012H104.088V11.9622C90.8365 11.654 88.9874 11.839 88.3711 12.4553ZM108.834 39.6981C108.772 25.1522 108.834 12.8251 109.019 12.4553V12.3937C109.204 11.9006 110.683 11.654 113.457 11.654C116.045 11.654 117.956 11.9622 118.449 12.3937C118.881 12.8251 119.189 14.1195 119.189 17.2012L121.777 15.044C123.442 13.688 125.599 12.5786 127.633 12.1471C130.098 11.5924 131.824 11.5924 134.721 12.1471C137.063 12.5786 139.59 13.5647 141.008 14.5509C142.364 15.5371 144.213 17.3861 145.199 18.7421C146.123 20.0981 147.294 22.8717 147.849 24.9056C148.589 27.9257 148.774 32.1786 148.465 66.2012H133.057L132.748 51.3471C132.44 37.5408 132.379 36.3698 131.208 35.1371C130.53 34.3974 129.42 33.7811 128.742 33.7811C128.064 33.7811 127.078 34.2742 126.585 34.8289C125.845 35.6918 125.599 38.7735 125.044 66.2012H109.019L108.834 39.6981ZM210.717 13.1949C208.991 13.9346 206.464 15.9069 204.985 17.4478C203.567 19.0503 201.41 22.3786 200.239 24.7823C199.068 27.2478 197.527 31.5006 196.787 34.2125C195.986 37.2943 195.493 41.3006 195.431 44.9987C195.37 49.1283 195.616 51.7786 196.418 53.9358C196.972 55.6 198.267 58.0654 199.314 59.2981C200.424 60.7157 202.704 62.3798 204.985 63.4893C207.327 64.5371 210.84 65.5232 213.799 65.9547C216.511 66.3245 221.935 66.571 225.818 66.4478L232.906 66.2628V37.9106C223.845 37.2327 219.716 36.7396 217.928 36.4314C215.586 35.9383 214.353 35.322 213.429 34.0276C212.751 33.1031 212.258 31.932 212.381 31.439C212.566 30.6993 214.353 30.4528 222.736 30.2062L232.906 29.8981C232.659 23.6729 232.166 20.7761 231.735 19.4201C231.242 18.0641 229.824 16.0302 228.653 14.9207C227.42 13.8729 225.386 12.7018 224.092 12.332C222.859 12.0239 220.024 11.7157 217.805 11.7157C214.908 11.7157 212.936 12.1471 210.717 13.1949ZM237.652 39.7597C237.59 25.1522 237.652 12.8868 237.837 12.4553C238.021 11.9622 239.562 11.7157 242.582 11.7157C245.418 11.7157 247.39 11.9622 247.883 12.4553C248.314 12.8868 248.623 14.1195 248.623 15.1056C248.684 16.4616 248.808 16.7081 249.177 16.0301C249.486 15.5371 251.026 14.4893 252.691 13.7496C254.54 12.9484 257.313 12.332 263.723 12.0239V23.0566L260.95 23.5496C259.409 23.8578 257.683 24.5358 257.005 25.1522C256.389 25.7069 255.587 26.7547 255.156 27.4327C254.725 28.2339 254.355 34.9522 253.862 66.2628H237.837L237.652 39.7597ZM277.283 12.1471C276.605 12.2704 275.187 12.7018 274.201 13.0717C273.215 13.4415 271.551 14.366 270.565 15.044C269.517 15.7836 268.223 17.571 267.545 19.1119C266.743 20.961 266.497 22.5635 266.743 23.8578C266.928 24.9673 268.038 26.8779 269.086 28.1107C270.195 29.3434 272.722 31.254 274.633 32.4251C276.605 33.5962 278.208 34.9522 278.208 35.4452C278.208 35.9383 277.776 36.493 277.283 36.6779C276.79 36.8629 275.311 36.9861 274.016 36.9861C272.784 36.9861 270.811 37.171 269.702 37.4176L267.668 37.9106L268.038 66.2628C288.131 66.2012 290.226 66.0163 294.048 64.8452C297.623 63.7358 299.164 62.8729 301.506 60.5308C304.094 58.0654 304.649 57.0792 305.265 53.9358C305.697 51.8402 305.882 49.1283 305.635 47.7723C305.389 46.4163 304.587 43.9509 303.848 42.2867C303.108 40.4993 301.382 38.2188 299.78 36.8629C298.239 35.5069 295.219 33.5962 293 32.5484C291.765 31.9996 290.206 31.2792 288.758 30.6099L288.753 30.6077L288.752 30.6069C287.6 30.0745 286.518 29.5748 285.727 29.2201C284.001 28.4188 282.091 27.1245 281.536 26.3232C280.92 25.4603 280.735 24.2893 280.92 22.9333C281.228 21.3924 281.782 20.7761 283.447 20.0364C285.049 19.3585 286.035 19.2968 287.268 19.7283C288.254 20.0364 289.364 21.0226 289.733 21.8855C290.165 22.7484 290.535 24.166 290.535 25.0905C290.535 26.0767 290.843 27.1861 291.274 27.6176C291.767 28.1107 293.863 28.3572 297.006 28.4188C300.273 28.4188 302.184 28.1723 302.677 27.6176C303.17 27.0629 303.231 25.9534 302.8 23.7346C302.43 22.0088 301.691 19.7283 301.136 18.5572C300.581 17.3861 299.225 15.7836 298.239 14.9824C297.253 14.2427 294.972 13.1333 293.308 12.6402C291.336 12.0239 288.069 11.7157 284.371 11.7773C281.166 11.839 277.961 11.9622 277.283 12.1471ZM214.046 22.5018C213.984 22.0087 214.6 21.1458 215.401 20.5911C216.203 20.098 217.312 19.6665 217.805 19.6665C218.298 19.6049 219.223 20.1596 219.778 20.8992C220.394 21.5772 220.764 22.4401 220.579 22.7483C220.394 23.0565 218.853 23.3647 217.189 23.3647C214.97 23.3647 214.107 23.1181 214.046 22.5018ZM15.9499 23.981C16.443 22.9948 17.799 21.5772 18.8468 20.8992C19.9562 20.2213 21.1273 19.7898 21.4971 19.8514C21.8669 19.9747 22.1751 23.5496 22.4216 36.9244H20.6958C19.7713 36.9244 18.477 36.3697 17.6757 35.5684C16.9361 34.7672 16.0732 33.4112 15.7034 32.4867C15.3336 31.5005 15.0254 29.6514 15.0254 28.2955C15.0254 26.9395 15.4568 24.9672 15.9499 23.981ZM62.0531 21.0225C61.6833 21.454 61.0669 22.5018 60.6355 23.3647C60.204 24.2276 59.6493 26.4464 59.4027 28.2955C59.1562 30.1445 59.2178 32.6099 59.4644 33.7194C59.7726 34.7672 60.5738 35.9999 61.2518 36.3081C61.9298 36.6162 63.5323 36.8628 64.8266 36.7395C66.7373 36.6162 67.2921 36.3081 68.155 34.459C69.0795 32.6716 69.1411 31.6854 68.648 28.6036C68.2782 26.5697 67.5386 23.9194 66.9222 22.7483C66.1826 21.2691 65.3814 20.5294 64.2719 20.4062C63.409 20.2829 62.4229 20.5911 62.0531 21.0225Z" fill="#09693C"/>
</svg>
